<?xml version="1.0" encoding="utf-8"?>
<!-- Generator: Adobe Illustrator 21.0.0, SVG Export Plug-In . SVG Version: 6.00 Build 0)  -->
<svg version="1.1" id="Layer_1" xmlns="http://www.w3.org/2000/svg" xmlns:xlink="http://www.w3.org/1999/xlink" x="0px" y="0px"
	 viewBox="0 0 125 125" style="enable-background:new 0 0 125 125;" xml:space="preserve">
<style type="text/css">
	.st0{fill:none;stroke:#000000;stroke-width:2;stroke-linecap:round;stroke-linejoin:round;stroke-miterlimit:10;}
</style>
<g>
	<g>
		<path class="st0" d="M41.7,32.2c16.9-3.5,34.9-7.3,51.8-10.8c0.8,3.7,1.5,7.1,2.2,10.8 M21.1,77.2c-2.8-13.5-5.3-25.5-8.1-39
			c2.1-0.4,6-1.3,8.1-1.7 M66.2,95.3c-13.6,2.8-26,5.4-39.6,8.2c-0.6-2.9-1.1-5.3-1.7-8.2 M101.5,59.5c1.7,8.1,3.9,19.2,5.6,27.3
			c-2,0.4-3.7,0.8-5.7,1.2 M21.1,95.3c26.8,0,53.6,0,80.4,0c0-21.1,0-42.1,0-63.1 M95.8,32.2c-14.5,0-53.2,0-74.7,0
			c0,19.8,0,37.5,0,57.3"/>
		<path class="st0" d="M34.4,79.6c4.4-11.9,7.8-20.9,12.3-32.8c3.9,4.9,7.5,9.3,11.3,14.2"/>
		<path class="st0" d="M60.6,64.1c1.8,2.3,3.7,4.6,5.6,6.9c3.2-2.4,6.4-4.8,9.7-7.3c4.8,7.3,9.7,14.5,14.5,21.8
			c-19.5,0-37.9,0-57.4,0"/>
		<path class="st0" d="M87.4,43.3c1.8,1.3,3.1,3.5,3,5.9c0,4-3.3,7.2-7.3,7.2c-3,0-5.6-1.8-6.7-4.4"/>
		<path class="st0" d="M76,48c0.5-3.5,3.5-6.1,7.2-6.1c0.3,0,0.6,0,0.9,0.1"/>
	</g>
	<line class="st0" x1="115" y1="21.5" x2="10" y2="103.5"/>
</g>
</svg>
